<svg aria-hidden="true" style="position: absolute; width: 0; height: 0; overflow: hidden;" version="1.1" xmlns="http://www.w3.org/2000/svg" xmlns:xlink="http://www.w3.org/1999/xlink">
<defs>

<symbol id="icon-clock" viewBox="0 0 32 32">
<path fill="#1c2752" style="fill: var(--color1, #1c2752)" d="M16 0c-8.836 0-16 7.164-16 16s7.164 16 16 16c8.836 0 16-7.164 16-16s-7.164-16-16-16zM23.385 18.462h-7.385c-0.326 0-0.639-0.13-0.87-0.361s-0.36-0.544-0.36-0.87v-11.077c0-0.326 0.13-0.639 0.36-0.87s0.544-0.36 0.87-0.36c0.326 0 0.639 0.13 0.87 0.36s0.36 0.544 0.36 0.87v9.846h6.154c0.327 0 0.639 0.13 0.87 0.36s0.361 0.544 0.361 0.87-0.13 0.639-0.361 0.87c-0.231 0.231-0.544 0.361-0.87 0.361z"></path>
</symbol>

<symbol id="icon-email" viewBox="0 0 41 32">
<path stroke-linejoin="round" stroke-linecap="round" stroke-miterlimit="4" stroke-width="2.9091" d="M35.636 1.455h-30.545c-2.008 0-3.636 1.628-3.636 3.636v21.818c0 2.008 1.628 3.636 3.636 3.636h30.545c2.008 0 3.636-1.628 3.636-3.636v-21.818c0-2.008-1.628-3.636-3.636-3.636z"></path>
<path stroke-linejoin="round" stroke-linecap="round" stroke-miterlimit="4" stroke-width="2.9091" d="M7.273 7.273l13.091 10.182 13.091-10.182"></path>
</symbol>

<symbol id="icon-facebook" viewBox="0 0 34 32">
<path d="M32.915 16.902c0-8.426-7.095-15.259-15.846-15.259s-15.846 6.832-15.846 15.259c0 7.616 5.794 13.928 13.37 15.074v-10.662h-4.024v-4.412h4.024v-3.362c0-3.824 2.366-5.937 5.985-5.937 1.734 0 3.548 0.298 3.548 0.298v3.755h-1.999c-1.967 0-2.583 1.176-2.583 2.384v2.861h4.394l-0.702 4.412h-3.692v10.663c7.576-1.145 13.37-7.458 13.37-15.075z"></path>
</symbol>

<symbol id="icon-for-comment" viewBox="0 0 43 32">
<path fill="#1c2752" style="fill: var(--color1, #1c2752)" d="M35.299 2.597c-2.049 0.868-3.837 2.187-5.365 3.958s-2.448 3.576-2.76 5.417c-0.174 0.972-0.26 1.806-0.26 2.5 0 0.799 0.087 1.458 0.26 1.979 1.632-1.701 3.698-2.552 6.198-2.552s4.531 0.729 6.094 2.188 2.344 3.472 2.344 6.042c0 2.431-0.833 4.41-2.5 5.937-1.632 1.528-3.715 2.292-6.25 2.292-3.472 0-6.007-1.25-7.604-3.75-0.729-1.076-1.302-2.396-1.719-3.958-0.417-1.597-0.625-3.229-0.625-4.896 0-3.646 0.937-6.979 2.812-10s4.67-5.382 8.385-7.083l0.99 1.927zM13.319 2.597c-2.049 0.868-3.837 2.187-5.365 3.958s-2.448 3.576-2.76 5.417c-0.174 0.972-0.26 1.806-0.26 2.5 0 0.799 0.087 1.458 0.26 1.979 1.632-1.701 3.698-2.552 6.198-2.552s4.531 0.729 6.094 2.188c1.562 1.458 2.344 3.472 2.344 6.042 0 2.431-0.833 4.41-2.5 5.937-1.632 1.528-3.715 2.292-6.25 2.292-3.472 0-6.007-1.25-7.604-3.75-0.729-1.076-1.302-2.396-1.719-3.958-0.417-1.597-0.625-3.229-0.625-4.896 0-3.646 0.938-6.979 2.813-10s4.67-5.382 8.385-7.083l0.99 1.927z"></path>
</symbol>

<symbol id="icon-gear" viewBox="0 0 33 32">
<path fill="#ffb342" style="fill: var(--color2, #ffb342)" d="M33.103 15.529c-0.011-0.194-0.091-0.378-0.228-0.519s-0.32-0.231-0.517-0.253l-2.040-0.322c-0.092-0.015-0.176-0.058-0.241-0.123s-0.106-0.149-0.117-0.239c-0.039-0.245-0.080-0.499-0.135-0.739-0.018-0.088-0.007-0.178 0.030-0.26s0.1-0.149 0.179-0.194l1.813-0.982c0.18-0.089 0.32-0.24 0.393-0.424s0.075-0.387 0.005-0.572l-0.314-0.846c-0.069-0.185-0.205-0.34-0.384-0.433s-0.385-0.119-0.582-0.073l-2.033 0.388c-0.091 0.016-0.185 0.003-0.268-0.036s-0.151-0.103-0.195-0.182c-0.119-0.217-0.247-0.437-0.382-0.654-0.049-0.077-0.072-0.167-0.065-0.258s0.041-0.177 0.101-0.247l1.353-1.525c0.137-0.144 0.216-0.332 0.222-0.529s-0.062-0.389-0.191-0.54l-0.59-0.692c-0.128-0.152-0.31-0.252-0.51-0.281s-0.403 0.016-0.571 0.125l-1.78 1.043c-0.079 0.046-0.171 0.066-0.262 0.058s-0.178-0.046-0.246-0.106c-0.197-0.169-0.398-0.331-0.586-0.481-0.072-0.056-0.125-0.133-0.149-0.219s-0.020-0.179 0.012-0.263l0.737-1.895c0.080-0.181 0.090-0.384 0.026-0.571s-0.195-0.345-0.369-0.444l-0.803-0.457c-0.175-0.098-0.381-0.13-0.578-0.090s-0.373 0.151-0.492 0.31l-1.301 1.595c-0.047 0.069-0.117 0.121-0.198 0.145s-0.169 0.020-0.247-0.011c-0.049-0.019-0.459-0.183-0.778-0.287-0.087-0.028-0.164-0.082-0.217-0.155s-0.082-0.161-0.080-0.251l0.031-2.025c0.011-0.198-0.052-0.393-0.178-0.548s-0.305-0.261-0.504-0.297l-0.911-0.155c-0.198-0.033-0.403 0.005-0.575 0.107s-0.3 0.262-0.36 0.45l-0.676 1.927c-0.031 0.086-0.089 0.159-0.166 0.21s-0.168 0.077-0.261 0.073h-0.776c-0.092 0.002-0.182-0.025-0.258-0.076s-0.133-0.124-0.164-0.209l-0.673-1.916c-0.059-0.189-0.187-0.35-0.359-0.454s-0.378-0.142-0.577-0.109l-0.913 0.155c-0.198 0.036-0.377 0.14-0.502 0.294s-0.189 0.347-0.179 0.544l0.032 2.032c0.001 0.091-0.029 0.18-0.084 0.254s-0.134 0.128-0.223 0.154c-0.182 0.069-0.578 0.217-0.758 0.282-0.159 0.056-0.333-0.005-0.473-0.163l-1.294-1.553c-0.119-0.16-0.294-0.271-0.491-0.313s-0.404-0.010-0.58 0.088l-0.801 0.453c-0.177 0.099-0.309 0.258-0.373 0.447s-0.053 0.394 0.029 0.576l0.736 1.89c0.032 0.084 0.036 0.176 0.012 0.263s-0.076 0.164-0.147 0.221c-0.193 0.155-0.391 0.311-0.589 0.483-0.068 0.060-0.153 0.097-0.244 0.106s-0.182-0.011-0.261-0.056l-1.759-1.063c-0.169-0.107-0.372-0.151-0.572-0.122s-0.381 0.127-0.511 0.277l-0.588 0.69c-0.131 0.15-0.2 0.342-0.194 0.539s0.085 0.385 0.224 0.528l1.359 1.524c0.060 0.069 0.096 0.154 0.103 0.245s-0.017 0.18-0.067 0.256c-0.136 0.211-0.266 0.433-0.384 0.655-0.044 0.080-0.113 0.144-0.197 0.183s-0.178 0.052-0.27 0.036l-2.030-0.383c-0.197-0.046-0.404-0.020-0.582 0.073s-0.315 0.247-0.384 0.433l-0.318 0.845c-0.070 0.185-0.069 0.389 0.005 0.573s0.213 0.335 0.393 0.425l1.813 0.982c0.082 0.044 0.146 0.112 0.184 0.195s0.047 0.176 0.027 0.264l-0.019 0.099c-0.041 0.217-0.080 0.422-0.116 0.64-0.013 0.089-0.054 0.172-0.118 0.236s-0.147 0.108-0.237 0.124l-2.044 0.322c-0.2 0.024-0.384 0.118-0.518 0.265s-0.209 0.336-0.21 0.533v0.899c-0.001 0.197 0.073 0.388 0.207 0.535s0.321 0.24 0.522 0.262l2.043 0.322c0.092 0.015 0.176 0.058 0.241 0.123s0.106 0.149 0.117 0.24c0.039 0.245 0.080 0.499 0.135 0.739 0.018 0.087 0.007 0.178-0.030 0.26s-0.1 0.15-0.179 0.195l-1.812 0.984c-0.18 0.090-0.32 0.241-0.393 0.424s-0.075 0.387-0.005 0.572l0.318 0.846c0.069 0.185 0.206 0.339 0.384 0.433s0.385 0.119 0.581 0.073l2.033-0.384c0.091-0.016 0.185-0.004 0.268 0.036s0.152 0.103 0.195 0.183c0.119 0.217 0.247 0.437 0.382 0.654 0.049 0.077 0.072 0.167 0.066 0.258s-0.042 0.177-0.101 0.247l-1.353 1.524c-0.139 0.143-0.22 0.33-0.227 0.527s0.059 0.39 0.187 0.542l0.59 0.692c0.128 0.152 0.31 0.252 0.51 0.281s0.403-0.016 0.571-0.125l1.78-1.043c0.079-0.046 0.171-0.066 0.263-0.058s0.178 0.046 0.246 0.106c0.197 0.169 0.398 0.331 0.586 0.481 0.072 0.056 0.125 0.133 0.149 0.219s0.021 0.179-0.012 0.263l-0.738 1.895c-0.080 0.181-0.090 0.384-0.026 0.571s0.195 0.345 0.369 0.444l0.804 0.454c0.175 0.099 0.381 0.131 0.578 0.090s0.373-0.15 0.492-0.309l1.317-1.58c0.111-0.134 0.287-0.194 0.416-0.143 0.277 0.112 0.462 0.175 0.791 0.282 0.088 0.028 0.164 0.082 0.217 0.155s0.082 0.161 0.081 0.251l-0.032 2.023c-0.011 0.198 0.053 0.392 0.178 0.548s0.305 0.261 0.504 0.297l0.911 0.155c0.198 0.034 0.403-0.004 0.575-0.106s0.3-0.262 0.36-0.45l0.676-1.924c0.031-0.086 0.089-0.159 0.165-0.21s0.168-0.077 0.261-0.073h0.776c0.092-0.002 0.183 0.024 0.258 0.076s0.133 0.124 0.164 0.209l0.674 1.916c0.052 0.166 0.158 0.312 0.301 0.415s0.317 0.16 0.495 0.16c0.047 0 0.095-0.004 0.142-0.012l0.913-0.155c0.198-0.036 0.377-0.14 0.502-0.294s0.189-0.347 0.179-0.544l-0.032-2.032c-0.001-0.090 0.028-0.177 0.082-0.25s0.13-0.127 0.217-0.154c0.306-0.1 0.52-0.181 0.709-0.252l0.048-0.018c0.247-0.083 0.366 0.018 0.435 0.102l1.333 1.602c0.119 0.159 0.295 0.268 0.492 0.309s0.403 0.008 0.578-0.090l0.801-0.453c0.175-0.099 0.307-0.257 0.37-0.445s0.054-0.392-0.027-0.572l-0.735-1.89c-0.032-0.084-0.037-0.176-0.013-0.263s0.076-0.164 0.147-0.221c0.193-0.155 0.392-0.311 0.589-0.483 0.068-0.060 0.154-0.097 0.246-0.106s0.183 0.012 0.262 0.058l1.782 1.041c0.169 0.107 0.372 0.151 0.572 0.122s0.381-0.127 0.511-0.278l0.589-0.691c0.131-0.15 0.2-0.342 0.194-0.539s-0.085-0.385-0.224-0.528l-1.357-1.528c-0.060-0.069-0.096-0.154-0.103-0.245s0.017-0.18 0.067-0.256c0.136-0.21 0.266-0.433 0.384-0.655 0.044-0.080 0.113-0.144 0.197-0.183s0.178-0.052 0.269-0.036l2.028 0.386c0.197 0.046 0.404 0.020 0.582-0.073s0.315-0.247 0.384-0.433l0.314-0.845c0.070-0.185 0.069-0.389-0.005-0.572s-0.213-0.335-0.393-0.425l-1.814-0.984c-0.080-0.044-0.144-0.113-0.181-0.195s-0.047-0.174-0.026-0.262l0.019-0.099c0.041-0.217 0.080-0.422 0.116-0.64 0.013-0.089 0.054-0.172 0.118-0.236s0.147-0.108 0.237-0.124l2.044-0.322c0.2-0.024 0.385-0.118 0.52-0.265s0.209-0.337 0.211-0.534v-0.909zM10.627 22.829c-0.099 0.168-0.238 0.311-0.405 0.417s-0.357 0.171-0.555 0.192c-0.198 0.020-0.398-0.006-0.583-0.076s-0.351-0.182-0.484-0.326c-1.793-1.934-2.783-4.451-2.776-7.060s1.008-5.121 2.81-7.047c0.133-0.145 0.3-0.256 0.486-0.326s0.387-0.095 0.585-0.074c0.198 0.021 0.388 0.088 0.555 0.194s0.305 0.251 0.403 0.42l3.633 6.24c0.109 0.186 0.166 0.397 0.166 0.611s-0.057 0.425-0.166 0.611l-3.668 6.223zM16.552 26.492c-0.757 0-1.512-0.078-2.253-0.233-0.193-0.042-0.373-0.128-0.525-0.25s-0.273-0.279-0.353-0.455c-0.079-0.177-0.115-0.369-0.104-0.562s0.069-0.38 0.168-0.547l3.66-6.213c0.11-0.187 0.269-0.343 0.46-0.451s0.409-0.165 0.63-0.165h7.332c0.198-0 0.392 0.045 0.569 0.132s0.329 0.213 0.446 0.368c0.117 0.155 0.195 0.335 0.227 0.525s0.019 0.385-0.041 0.569c-1.392 4.218-5.443 7.281-10.218 7.281zM17.149 13.764l-3.622-6.223c-0.098-0.167-0.155-0.354-0.165-0.547s0.026-0.384 0.106-0.561c0.080-0.176 0.201-0.331 0.354-0.453s0.333-0.207 0.525-0.249c0.725-0.149 1.463-0.224 2.203-0.224 4.774 0 8.826 3.063 10.215 7.284 0.059 0.184 0.073 0.379 0.041 0.569s-0.11 0.37-0.227 0.525c-0.117 0.155-0.27 0.281-0.446 0.368s-0.371 0.132-0.569 0.132h-7.321c-0.223 0-0.441-0.057-0.634-0.166s-0.352-0.266-0.461-0.455z"></path>
</symbol>

<symbol id="icon-gear2" viewBox="0 0 27 32">
<path fill="#ffb342" style="fill: var(--color2, #ffb342)" d="M24.183 19.677h2.988v-2.577h-8.639c-0.157 2.674-2.319 4.795-4.962 4.795s-4.805-2.121-4.962-4.795h-8.079v2.577h2.467c0.132 0.53 0.305 1.049 0.512 1.56 0.236 0.575 0.515 1.124 0.839 1.644l-2.159 2.218 3.4 3.494 2.162-2.222c0.5 0.326 1.028 0.61 1.578 0.849 0.619 0.268 1.257 0.478 1.908 0.623v3.090h4.814v-3.116c0.613-0.145 1.213-0.345 1.798-0.597 0.591-0.255 1.153-0.562 1.684-0.917l2.124 2.183 3.403-3.497-2.159-2.218c0.295-0.488 0.55-1.001 0.77-1.534 0.207-0.51 0.38-1.030 0.512-1.56z"></path>
<path fill="#ffb342" style="fill: var(--color2, #ffb342)" d="M22.899 5.889v5.203c0 0.353-0.281 0.64-0.627 0.64h-0.444c-0.346 0-0.627-0.286-0.627-0.64v-6.556c-1.287-0.873-2.731-1.526-4.279-1.899v9.027c0 0.353-0.281 0.639-0.627 0.639h-4.9c-0.346 0-0.627-0.286-0.627-0.639v-9.027c-1.529 0.373-2.973 1.033-4.26 1.899v6.556c0 0.353-0.281 0.64-0.627 0.64h-0.444c-0.346 0-0.627-0.286-0.627-0.64v-5.203c-2.626 2.478-4.279 6.016-4.279 9.953h26.642c0.007-3.937-1.64-7.475-4.273-9.953z"></path>
<path fill="#ffb342" style="fill: var(--color2, #ffb342)" d="M15.667 10.588c0 0.298-0.21 0.539-0.475 0.539h-2.684c-0.258 0-0.474-0.241-0.474-0.538v-8.984c0-0.298 0.21-0.538 0.474-0.538h2.684c0.258 0 0.475 0.241 0.475 0.538v8.984z"></path>
</symbol>

<symbol id="icon-human" viewBox="0 0 29 32">
<path fill="#1c2752" style="fill: var(--color1, #1c2752)" d="M19.706 2.327c-1.347-1.501-3.229-2.327-5.306-2.327-2.088 0-3.976 0.821-5.317 2.313-1.356 1.508-2.016 3.557-1.861 5.77 0.307 4.366 3.527 7.917 7.178 7.917s6.865-3.551 7.177-7.916c0.157-2.193-0.508-4.238-1.871-5.757zM26.584 32h-24.369c-0.319 0.004-0.635-0.065-0.925-0.202s-0.546-0.34-0.751-0.593c-0.45-0.555-0.631-1.313-0.497-2.079 0.584-3.344 2.408-6.154 5.274-8.126 2.546-1.751 5.772-2.714 9.083-2.714s6.537 0.964 9.083 2.714c2.866 1.972 4.689 4.781 5.274 8.125 0.134 0.766-0.047 1.524-0.497 2.079-0.204 0.253-0.461 0.455-0.751 0.593s-0.606 0.207-0.925 0.203z"></path>
</symbol>

<symbol id="icon-instagram" viewBox="0 0 30 32">
<path d="M21.266 3.966c1.657 0.005 3.246 0.641 4.418 1.77s1.833 2.658 1.837 4.254v12.046c-0.005 1.596-0.666 3.126-1.837 4.254s-2.76 1.765-4.418 1.769h-12.509c-1.657-0.005-3.246-0.641-4.418-1.769s-1.833-2.658-1.838-4.254v-12.046c0.005-1.596 0.666-3.125 1.838-4.254s2.76-1.765 4.418-1.77h12.509zM21.266 1.557h-12.509c-4.816 0-8.757 3.795-8.757 8.433v12.046c0 4.638 3.941 8.433 8.757 8.433h12.509c4.816 0 8.757-3.795 8.757-8.433v-12.046c0-4.638-3.941-8.433-8.757-8.433z"></path>
<path d="M23.143 9.99c-0.371 0-0.734-0.106-1.043-0.305s-0.549-0.481-0.691-0.811c-0.142-0.33-0.179-0.694-0.107-1.044s0.251-0.672 0.514-0.925c0.262-0.253 0.597-0.425 0.961-0.495s0.741-0.034 1.084 0.103c0.343 0.137 0.636 0.368 0.842 0.666s0.316 0.646 0.316 1.004c0 0.237-0.048 0.473-0.142 0.692s-0.232 0.419-0.407 0.587-0.381 0.301-0.609 0.392c-0.228 0.091-0.472 0.137-0.719 0.136zM15.012 11.194c0.99 0 1.957 0.283 2.78 0.812s1.464 1.282 1.843 2.163c0.379 0.88 0.478 1.849 0.285 2.784s-0.67 1.793-1.37 2.467c-0.7 0.674-1.591 1.133-2.562 1.319s-1.977 0.090-2.891-0.274c-0.914-0.365-1.696-0.982-2.246-1.775s-0.843-1.724-0.843-2.677c0.001-1.278 0.529-2.502 1.467-3.406s2.21-1.412 3.537-1.413zM15.012 8.785c-1.485 0-2.936 0.424-4.17 1.218s-2.196 1.923-2.764 3.244c-0.568 1.321-0.717 2.774-0.427 4.176s1.004 2.69 2.054 3.701c1.050 1.011 2.387 1.699 3.843 1.978s2.965 0.136 4.337-0.411c1.372-0.547 2.544-1.473 3.369-2.662s1.265-2.586 1.265-4.015c0-1.917-0.791-3.755-2.198-5.111s-3.317-2.117-5.307-2.117z"></path>
</symbol>

<symbol id="icon-left-arrow" viewBox="0 0 19 32">
<path fill="none" stroke="#1c2752" style="stroke: var(--color1, #1c2752)" stroke-linejoin="round" stroke-linecap="round" stroke-miterlimit="4" stroke-width="4.2667" d="M16.663 2.624l-13.232 13.232 13.232 13.232"></path>
</symbol>

<symbol id="icon-location" viewBox="0 0 22 32">
<path fill="none" stroke="#1c2752" style="stroke: var(--color1, #1c2752)" stroke-linejoin="round" stroke-linecap="round" stroke-miterlimit="4" stroke-width="2" d="M11 1c-5.521 0-10 4.427-10 9.88 0 6.274 6.667 16.217 9.115 19.652 0.102 0.145 0.235 0.263 0.389 0.344s0.324 0.124 0.497 0.124 0.343-0.042 0.497-0.124c0.154-0.081 0.287-0.199 0.389-0.344 2.448-3.433 9.115-13.372 9.115-19.652 0-5.453-4.479-9.88-10-9.88z"></path>
<path fill="none" stroke="#1c2752" style="stroke: var(--color1, #1c2752)" stroke-linejoin="round" stroke-linecap="round" stroke-miterlimit="4" stroke-width="2" d="M11 16c2.209 0 4-1.791 4-4s-1.791-4-4-4c-2.209 0-4 1.791-4 4s1.791 4 4 4z"></path>
</symbol>

<symbol id="icon-logo" viewBox="0 0 161 32">
<path fill="#1c2752" style="fill: var(--color1, #1c2752)" d="M38.005 24v-16.45h7.583c1.804 0 3.197 0.381 4.177 1.143s1.47 1.804 1.47 3.127c0 0.98-0.296 1.812-0.887 2.497-0.576 0.684-1.369 1.143-2.38 1.377v-0.373c1.182 0.202 2.092 0.653 2.73 1.353 0.653 0.684 0.98 1.579 0.98 2.683 0 1.462-0.521 2.606-1.563 3.43-1.027 0.809-2.45 1.213-4.27 1.213h-7.84zM41.482 21.293h3.92c0.902 0 1.594-0.171 2.077-0.513s0.723-0.887 0.723-1.633c0-0.762-0.241-1.307-0.723-1.633-0.482-0.342-1.174-0.513-2.077-0.513h-3.92v4.293zM41.482 14.317h3.453c0.949 0 1.649-0.171 2.1-0.513s0.677-0.856 0.677-1.54c0-0.669-0.226-1.174-0.677-1.517s-1.151-0.513-2.1-0.513h-3.453v4.083zM54.018 24v-17.173h3.523v17.173h-3.523zM64.715 24.257c-1.478 0-2.574-0.404-3.29-1.213-0.716-0.824-1.073-2.069-1.073-3.733v-7.14h3.523v7.14c0 0.747 0.148 1.299 0.443 1.657 0.311 0.358 0.786 0.537 1.423 0.537 0.7 0 1.275-0.241 1.727-0.723 0.467-0.498 0.7-1.159 0.7-1.983v-6.627h3.523v11.83h-3.43v-2.263h0.327c-0.358 0.793-0.871 1.416-1.54 1.867-0.653 0.436-1.431 0.653-2.333 0.653zM80.545 24.257c-2.053 0-3.656-0.552-4.807-1.657s-1.727-2.606-1.727-4.503c0-1.229 0.241-2.302 0.723-3.22 0.497-0.918 1.182-1.633 2.053-2.147 0.887-0.529 1.921-0.793 3.103-0.793 1.167 0 2.139 0.249 2.917 0.747 0.793 0.498 1.384 1.198 1.773 2.1 0.404 0.887 0.607 1.921 0.607 3.103v0.817h-8.283v-1.75h5.717l-0.397 0.327c0-0.98-0.203-1.719-0.607-2.217-0.389-0.513-0.957-0.77-1.703-0.77-0.825 0-1.463 0.303-1.913 0.91-0.436 0.607-0.653 1.478-0.653 2.613v0.373c0 1.151 0.28 2.007 0.84 2.567 0.575 0.56 1.4 0.84 2.473 0.84 0.637 0 1.237-0.078 1.797-0.233 0.575-0.171 1.12-0.436 1.633-0.793l0.98 2.333c-0.591 0.436-1.276 0.77-2.053 1.003-0.763 0.233-1.587 0.35-2.473 0.35zM95.613 24.257c-1.758 0-3.267-0.35-4.527-1.050s-2.232-1.68-2.917-2.94c-0.669-1.276-1.003-2.777-1.003-4.503s0.335-3.22 1.003-4.48c0.685-1.26 1.657-2.24 2.917-2.94s2.769-1.050 4.527-1.050c1.135 0 2.17 0.163 3.103 0.49 0.933 0.311 1.727 0.77 2.38 1.377l-1.143 2.87c-0.715-0.56-1.4-0.957-2.053-1.19-0.638-0.233-1.361-0.35-2.17-0.35-1.54 0-2.722 0.459-3.547 1.377-0.809 0.902-1.213 2.201-1.213 3.897s0.405 3.002 1.213 3.92c0.825 0.918 2.007 1.377 3.547 1.377 0.809 0 1.532-0.117 2.17-0.35 0.653-0.233 1.338-0.63 2.053-1.19l1.143 2.87c-0.653 0.591-1.447 1.050-2.38 1.377s-1.968 0.49-3.103 0.49zM108.176 24.257c-1.26 0-2.357-0.249-3.29-0.747-0.917-0.513-1.633-1.229-2.147-2.147-0.497-0.918-0.747-2.014-0.747-3.29 0-1.26 0.249-2.349 0.747-3.267 0.513-0.918 1.229-1.626 2.147-2.123 0.933-0.498 2.030-0.747 3.29-0.747s2.357 0.249 3.29 0.747c0.933 0.498 1.649 1.206 2.147 2.123 0.513 0.918 0.77 2.007 0.77 3.267 0 1.276-0.257 2.372-0.77 3.29-0.497 0.918-1.213 1.633-2.147 2.147-0.933 0.498-2.030 0.747-3.29 0.747zM108.176 21.597c0.809 0 1.447-0.288 1.913-0.863 0.483-0.576 0.723-1.462 0.723-2.66s-0.241-2.077-0.723-2.637c-0.467-0.56-1.104-0.84-1.913-0.84s-1.454 0.28-1.937 0.84c-0.467 0.56-0.7 1.439-0.7 2.637s0.233 2.084 0.7 2.66c0.483 0.576 1.128 0.863 1.937 0.863zM134.061 24.257c-1.027 0-1.929-0.249-2.707-0.747s-1.384-1.206-1.82-2.123c-0.435-0.918-0.653-2.022-0.653-3.313 0-1.276 0.218-2.372 0.653-3.29s1.043-1.618 1.82-2.1c0.778-0.498 1.68-0.747 2.707-0.747 0.949 0 1.797 0.233 2.543 0.7 0.763 0.451 1.26 1.066 1.493 1.843h-0.257l0.28-2.31h3.383c-0.047 0.513-0.093 1.034-0.14 1.563-0.031 0.513-0.047 1.019-0.047 1.517v8.75h-3.5l-0.023-2.217h0.28c-0.249 0.747-0.747 1.346-1.493 1.797s-1.587 0.677-2.52 0.677zM135.134 21.597c0.809 0 1.463-0.288 1.96-0.863s0.747-1.462 0.747-2.66-0.249-2.077-0.747-2.637c-0.497-0.56-1.151-0.84-1.96-0.84s-1.462 0.28-1.96 0.84c-0.497 0.56-0.747 1.439-0.747 2.637s0.241 2.084 0.723 2.66c0.498 0.576 1.159 0.863 1.983 0.863zM144.184 24v-8.703c0-0.513-0.016-1.034-0.047-1.563-0.016-0.529-0.055-1.050-0.117-1.563h3.383l0.397 3.453h-0.537c0.155-0.84 0.404-1.532 0.747-2.077 0.357-0.544 0.793-0.949 1.307-1.213 0.529-0.264 1.127-0.397 1.797-0.397 0.295 0 0.529 0.016 0.7 0.047 0.171 0.016 0.342 0.054 0.513 0.117l-0.023 3.103c-0.327-0.14-0.607-0.226-0.84-0.257-0.218-0.047-0.498-0.070-0.84-0.070-0.653 0-1.198 0.124-1.633 0.373-0.42 0.249-0.739 0.614-0.957 1.097-0.203 0.482-0.303 1.066-0.303 1.75v5.903h-3.547z"></path>
<path fill="#ffb342" style="fill: var(--color2, #ffb342)" d="M116.658 24v-17.173h3.523v17.173h-3.523zM123.061 24v-17.173h3.523v17.173h-3.523z"></path>
<path fill="#1c2752" style="fill: var(--color1, #1c2752)" d="M26.043 20.065h3.29v-2.732h-9.511c-0.173 2.835-2.553 5.084-5.463 5.084s-5.29-2.249-5.463-5.084h-8.895v2.732h2.716c0.145 0.561 0.336 1.113 0.564 1.654 0.26 0.609 0.567 1.191 0.924 1.743l-2.377 2.352 3.744 3.704 2.38-2.355c0.55 0.346 1.131 0.647 1.737 0.9 0.682 0.284 1.384 0.507 2.1 0.661v3.276h5.301v-3.304c0.675-0.154 1.336-0.366 1.979-0.633 0.651-0.27 1.27-0.596 1.855-0.972l2.339 2.314 3.747-3.708-2.377-2.352c0.325-0.517 0.606-1.061 0.848-1.626 0.228-0.541 0.419-1.092 0.564-1.654z"></path>
<path fill="#ffb342" style="fill: var(--color2, #ffb342)" d="M24.629 5.447v5.517c0 0.374-0.309 0.678-0.691 0.678h-0.489c-0.381 0-0.691-0.304-0.691-0.678v-6.951c-1.417-0.925-3.007-1.618-4.711-2.013v9.571c0 0.374-0.309 0.678-0.691 0.678h-5.395c-0.381 0-0.691-0.304-0.691-0.678v-9.571c-1.683 0.396-3.273 1.095-4.69 2.013v6.951c0 0.374-0.309 0.678-0.691 0.678h-0.489c-0.381 0-0.691-0.304-0.691-0.678v-5.517c-2.892 2.628-4.711 6.378-4.711 10.553h29.333c0.007-4.175-1.805-7.925-4.704-10.553z"></path>
<path fill="#ffb342" style="fill: var(--color2, #ffb342)" d="M16.667 10.429c0 0.316-0.231 0.571-0.522 0.571h-2.955c-0.284 0-0.522-0.255-0.522-0.571v-9.525c0-0.316 0.231-0.571 0.522-0.571h2.955c0.284 0 0.522 0.255 0.522 0.571v9.525z"></path>
</symbol>

<symbol id="icon-notes" viewBox="0 0 26 32">
<path stroke-linejoin="round" stroke-linecap="round" stroke-miterlimit="4" stroke-width="2.3704" d="M21.333 13.236v14.218c0 0.406-0.065 0.808-0.192 1.183s-0.312 0.716-0.546 1.003c-0.234 0.287-0.512 0.515-0.817 0.67s-0.633 0.235-0.964 0.235h-15.111c-0.668 0-1.309-0.326-1.781-0.905s-0.738-1.366-0.738-2.186v-18.546c0-0.82 0.265-1.606 0.738-2.186s1.113-0.905 1.781-0.905h10.545"></path>
<path fill="#ffb342" style="fill: var(--color2, #ffb342)" d="M25.811 0.418c-0.095-0.128-0.21-0.231-0.338-0.302s-0.267-0.111-0.407-0.115c-0.141-0.004-0.281 0.027-0.411 0.091s-0.249 0.16-0.349 0.282l-0.802 0.979c-0.097 0.119-0.152 0.281-0.152 0.45s0.055 0.33 0.152 0.45l0.735 0.9c0.048 0.059 0.105 0.107 0.168 0.139s0.131 0.049 0.199 0.049c0.068 0 0.136-0.017 0.199-0.049s0.12-0.079 0.169-0.139l0.782-0.954c0.395-0.484 0.432-1.273 0.055-1.78zM21.883 3.341l-11.7 14.333c-0.071 0.087-0.123 0.194-0.15 0.313l-0.541 1.978c-0.013 0.054-0.014 0.111-0.003 0.165s0.034 0.104 0.066 0.143c0.032 0.040 0.073 0.068 0.117 0.081s0.091 0.013 0.134-0.003l1.611-0.664c0.096-0.033 0.184-0.097 0.255-0.184l11.68-14.36c0.108-0.134 0.169-0.315 0.169-0.503s-0.061-0.369-0.169-0.503l-0.645-0.795c-0.109-0.134-0.258-0.209-0.412-0.209s-0.302 0.075-0.412 0.209z"></path>
</symbol>

<symbol id="icon-ok" viewBox="0 0 37 32">
<path stroke-linejoin="round" stroke-linecap="round" stroke-miterlimit="4" stroke-width="4.9231" d="M34.462 2.462l-22.4 27.077-9.6-10.154"></path>
</symbol>

<symbol id="icon-phone" viewBox="0 0 32 32">
<path stroke-linejoin="miter" stroke-linecap="butt" stroke-miterlimit="10" stroke-width="2.4615" d="M29.847 24.377c-1.128-1.136-3.859-2.794-5.183-3.462-1.726-0.869-1.868-0.94-3.224 0.067-0.905 0.672-1.506 1.273-2.565 1.047s-3.359-1.499-5.374-3.507c-2.014-2.008-3.361-4.375-3.588-5.43s0.384-1.649 1.050-2.556c0.939-1.278 0.868-1.491 0.065-3.216-0.626-1.342-2.332-4.047-3.472-5.169-1.22-1.205-1.22-0.992-2.006-0.665-0.64 0.269-1.254 0.597-1.834 0.978-1.136 0.755-1.767 1.382-2.208 2.324s-0.639 3.151 1.638 7.288c2.277 4.137 3.875 6.252 7.182 9.549s5.85 5.070 9.567 7.155c4.599 2.575 6.362 2.073 7.307 1.633s1.575-1.065 2.331-2.201c0.382-0.579 0.71-1.192 0.98-1.832 0.327-0.783 0.54-0.783-0.667-2.002z"></path>
</symbol>

<symbol id="icon-pinterest" viewBox="0 0 32 32">
<path d="M15.824 0c-8.423 0-15.253 6.827-15.253 15.246 0 6.242 3.759 11.605 9.132 13.967-0.041-1.062-0.007-2.342 0.266-3.499 0.293-1.239 1.961-8.311 1.961-8.311s-0.49-0.973-0.49-2.41c0-2.26 1.307-3.948 2.942-3.948 1.389 0 2.056 1.041 2.056 2.287 0 1.395-0.892 3.478-1.348 5.411-0.381 1.62 0.81 2.934 2.411 2.934 2.887 0 4.835-3.709 4.835-8.106 0-3.342-2.254-5.84-6.346-5.84-4.624 0-7.511 3.451-7.511 7.303 0 1.327 0.395 2.266 1.008 2.988 0.279 0.333 0.32 0.47 0.218 0.851-0.075 0.279-0.238 0.953-0.313 1.225-0.102 0.388-0.415 0.524-0.763 0.381-2.131-0.871-3.126-3.199-3.126-5.826 0-4.329 3.657-9.522 10.902-9.522 5.822 0 9.656 4.213 9.656 8.733 0 5.983-3.33 10.448-8.233 10.448-1.648 0-3.194-0.892-3.725-1.899 0 0-0.885 3.512-1.076 4.193-0.32 1.178-0.953 2.348-1.532 3.267 1.404 0.414 2.86 0.625 4.324 0.626 8.423 0 15.253-6.827 15.253-15.246s-6.823-15.253-15.246-15.253z"></path>
</symbol>

<symbol id="icon-price-ok" viewBox="0 0 32 32">
<path fill="none" stroke="#ffb342" style="stroke: var(--color2, #ffb342)" stroke-linejoin="miter" stroke-linecap="butt" stroke-miterlimit="10" stroke-width="2.5263" d="M30.242 15.963c0-7.883-6.396-14.279-14.279-14.279s-14.279 6.396-14.279 14.279c0 7.883 6.396 14.279 14.279 14.279s14.279-6.396 14.279-14.279z"></path>
<path fill="none" stroke="#ffb342" style="stroke: var(--color2, #ffb342)" stroke-linejoin="round" stroke-linecap="round" stroke-miterlimit="4" stroke-width="2.5263" d="M23.102 10.014l-9.995 11.899-4.284-4.76"></path>
</symbol>

<symbol id="icon-right-arrow" viewBox="0 0 19 32">
<path stroke-linejoin="round" stroke-linecap="round" stroke-miterlimit="4" stroke-width="4.2667" d="M2.537 29.751l13.232-13.232-13.232-13.232"></path>
</symbol>

<symbol id="icon-twitter" viewBox="0 0 38 32">
<path d="M36.662 5.005c-1.349 0.586-2.776 0.972-4.236 1.146 1.535-0.899 2.688-2.326 3.245-4.015-1.451 0.848-3.035 1.444-4.686 1.76-0.695-0.728-1.531-1.308-2.457-1.703s-1.923-0.598-2.929-0.596c-4.076 0-7.375 3.251-7.375 7.258-0.003 0.557 0.061 1.113 0.19 1.655-2.923-0.137-5.785-0.883-8.403-2.189s-4.935-3.145-6.802-5.398c-0.655 1.104-1.001 2.364-1.003 3.648 0 2.517 1.313 4.741 3.296 6.044-1.175-0.028-2.325-0.339-3.354-0.906v0.090c0 3.52 2.547 6.449 5.917 7.115-0.634 0.169-1.287 0.255-1.943 0.255-0.465 0.001-0.93-0.044-1.386-0.135 0.937 2.884 3.664 4.981 6.895 5.041-2.625 2.023-5.848 3.116-9.162 3.108-0.588-0.001-1.176-0.036-1.76-0.105 3.371 2.153 7.29 3.291 11.29 3.281 13.584 0 21.005-11.063 21.005-20.657 0-0.315-0.008-0.629-0.023-0.936 1.441-1.025 2.687-2.298 3.68-3.76z"></path>
</symbol>

</defs>
</svg>
